# xmcd CD database file
#
# Track frame offsets:
#	150
#	17614
#	31111
#	42367
#	58205
#	72789
#	87879
#	100683
#	124843
#	133540
#	159467
#	195614
#	203791
#	224544
#	238803
#	251850
#	267678
#	277894
#	288069
#	305348
#
# Disc length: 4177 seconds
#
# Revision: 1
# Processed by: cddbd v1.5.1PL0 Copyright (c) Steve Scherf et al.
# Submitted via: CDex 1.51
#
DISCID=24104f14
DTITLE=Elzbieta Mielczarek - Blues koncert
DYEAR=1983
DGENRE=Blues
TTITLE0=This Train
TTITLE1=Long Gone Blues
TTITLE2=See, See Rider
TTITLE3=Trouble In Mind
TTITLE4=God Bless The Child
TTITLE5=Deep River Blues (Let It Rain)
TTITLE6=Muddy Water
TTITLE7=Nobody Knows You, When You're Down And Out
TTITLE8=You Better Mind
TTITLE9=Hotel Grand
TTITLE10=Wielkie Kolo
TTITLE11=John Henry
TTITLE12=Poczekalnia PKP
TTITLE13=Trouble In Mind
TTITLE14=Deep River Blues (Let It Rain)
TTITLE15=Streets Of London
TTITLE16=See, See Rider
TTITLE17=Wildwood Flower
TTITLE18=Careless Love
TTITLE19=This Train
EXTD=YEAR: 1983
EXTT0=
EXTT1=
EXTT2=
EXTT3=
EXTT4=
EXTT5=
EXTT6=
EXTT7=
EXTT8=
EXTT9=
EXTT10=
EXTT11=
EXTT12=
EXTT13=
EXTT14=
EXTT15=
EXTT16=
EXTT17=
EXTT18=
EXTT19=
PLAYORDER=
